<?xml version="1.0" standalone="no"?><!DOCTYPE svg PUBLIC "-//W3C//DTD SVG 1.1//EN" "http://www.w3.org/Graphics/SVG/1.1/DTD/svg11.dtd"><svg t="1739090578570" class="icon" viewBox="0 0 1536 1024" version="1.1" xmlns="http://www.w3.org/2000/svg" p-id="5613" xmlns:xlink="http://www.w3.org/1999/xlink" width="300" height="200"><path d="M1158.144 200.192l-32.256 13.312c-19.968-31.232-46.08-56.832-76.288-76.288l13.312-32.256c4.096-10.24-0.512-22.528-11.264-26.624l-47.104-19.456c-10.24-4.096-22.528 0.512-26.624 11.264l-13.312 32.256c-34.816-7.68-71.168-7.68-107.52 0l-13.312-32.256c-4.096-10.24-16.384-15.36-26.624-11.264l-47.104 19.456c-10.24 4.096-15.36 16.384-11.264 26.624l13.312 32.256c-31.232 19.968-56.832 46.08-76.288 76.288l-32.256-13.312c-10.24-4.096-22.528 0.512-26.624 11.264l-19.456 47.104c-4.096 10.24 0.512 22.528 11.264 26.624l32.256 13.312c-7.68 34.816-7.68 71.168 0 107.52l-32.256 13.312c-10.24 4.096-15.36 16.384-11.264 26.624l19.456 47.104c4.096 10.24 16.384 15.36 26.624 11.264l32.256-13.312c19.968 31.232 46.08 56.832 76.288 76.288l-13.312 32.256c-4.096 10.24 0.512 22.528 11.264 26.624l47.104 19.456c10.24 4.096 22.528-0.512 26.624-11.264l13.312-32.256c34.816 7.68 71.168 7.68 107.52 0l13.312 32.256c4.096 10.24 16.384 15.36 26.624 11.264l47.104-19.456c10.24-4.096 15.36-16.384 11.264-26.624l-13.312-32.256c31.232-19.968 56.832-46.08 76.288-76.288l32.256 13.312c10.24 4.096 22.528-0.512 26.624-11.264l19.456-47.104c4.096-10.24-0.512-22.528-11.264-26.624l-32.256-13.312c7.68-34.816 7.68-71.168 0-107.52l32.256-13.312c10.24-4.096 15.36-16.384 11.264-26.624l-19.456-47.104c-4.096-10.752-16.384-15.872-26.624-11.264z m-176.64 322.56c-94.208 38.912-201.728-5.632-240.64-99.84-38.912-94.208 5.632-201.728 99.84-240.64s201.728 5.632 240.64 99.84c38.912 93.696-6.144 201.728-99.84 240.64z" fill="#2c2c2c" p-id="5614"></path><path d="M1025.024 283.648c-22.016 0-39.424 17.92-39.424 39.424 0 8.704 3.072 16.896 7.68 23.552l-25.6 46.08-45.568-102.4 1.024-1.024c0.512-0.512 1.024-1.536 1.536-2.048 3.584-6.144 6.144-13.312 6.144-20.992 0-22.016-17.92-39.424-39.424-39.424-22.016 0-39.424 17.92-39.424 39.424 0 5.12 1.024 10.24 3.072 14.848l-50.688 61.44c-2.048-0.512-4.096-0.512-6.656-0.512-22.016 0-39.424 17.92-39.424 39.424 0 22.016 17.92 39.424 39.424 39.424s39.424-17.92 39.424-39.424c0-8.192-2.56-15.36-6.656-21.504l44.032-57.344c5.12 2.048 10.752 3.584 16.384 3.584 2.048 0 3.584 0 5.632-0.512l44.544 103.424c-8.192 7.168-13.824 17.92-13.824 29.696 0 22.016 17.92 39.424 39.424 39.424s39.424-17.92 39.424-39.424c0-12.288-5.632-23.04-14.336-30.208l25.6-46.08h0.512c2.048 0.512 4.608 0.512 7.168 0.512 22.016 0 39.424-17.92 39.424-39.424s-17.92-39.936-39.424-39.936zM726.016 669.696h-23.04c-4.608-24.064-13.824-46.592-27.648-66.048l16.384-16.384c5.12-5.12 5.12-13.824 0-19.456l-24.064-24.064c-5.12-5.12-13.824-5.12-19.456 0l-16.384 16.384c-19.456-13.312-41.984-23.04-66.048-27.648v-23.04c0-7.68-6.144-13.824-13.824-13.824h-34.304c-7.68 0-13.824 6.144-13.824 13.824v23.04c-24.064 4.608-46.592 13.824-66.048 27.648l-16.384-16.384c-5.12-5.12-13.824-5.12-19.456 0l-24.064 24.064c-5.12 5.12-5.12 13.824 0 19.456l16.384 16.384c-13.312 19.456-23.04 41.984-27.648 66.048h-23.04c-7.68 0-13.824 6.144-13.824 13.824v34.304c0 7.68 6.144 13.824 13.824 13.824h23.04c4.608 24.064 13.824 46.592 27.648 66.048l-16.384 16.384c-5.12 5.12-5.12 13.824 0 19.456l24.064 24.064c5.12 5.12 13.824 5.12 19.456 0l16.384-16.384c19.456 13.312 41.984 23.04 66.048 27.648v23.04c0 7.68 6.144 13.824 13.824 13.824h34.304c7.68 0 13.824-6.144 13.824-13.824v-23.04c24.064-4.608 46.592-13.824 66.048-27.648l16.384 16.384c5.12 5.12 13.824 5.12 19.456 0l24.064-24.064c5.12-5.12 5.12-13.824 0-19.456l-16.384-16.384c13.312-19.456 23.04-41.984 27.648-66.048h23.04c7.68 0 13.824-6.144 13.824-13.824v-34.304c0-7.68-6.144-13.824-13.824-13.824z m-190.976 153.6c-68.096 0-122.88-54.784-122.88-122.88s54.784-122.88 122.88-122.88 122.88 54.784 122.88 122.88-55.296 122.88-122.88 122.88zM1019.392 790.016h-17.408c-3.072-18.432-10.24-34.816-20.48-49.664l12.288-12.288c4.096-4.096 4.096-10.24 0-14.336l-17.92-17.92c-4.096-4.096-10.24-4.096-14.336 0l-12.288 12.288c-14.848-10.24-31.744-17.408-49.664-20.48v-17.408c0-5.632-4.608-10.24-10.24-10.24h-25.6c-5.632 0-10.24 4.608-10.24 10.24v17.408c-18.432 3.072-34.816 10.24-49.664 20.48l-12.288-12.288c-4.096-4.096-10.24-4.096-14.336 0l-17.92 17.92c-4.096 4.096-4.096 10.24 0 14.336l12.288 12.288c-10.24 14.848-17.408 31.744-20.48 49.664h-17.408c-5.632 0-10.24 4.608-10.24 10.24v25.6c0 5.632 4.608 10.24 10.24 10.24h17.408c3.072 18.432 10.24 34.816 20.48 49.664l-12.288 12.288c-4.096 4.096-4.096 10.24 0 14.336l17.92 17.92c4.096 4.096 10.24 4.096 14.336 0l12.288-12.288c14.848 10.24 31.744 17.408 49.664 20.48v17.408c0 5.632 4.608 10.24 10.24 10.24h25.6c5.632 0 10.24-4.608 10.24-10.24v-17.408c18.432-3.072 34.816-10.24 49.664-20.48l12.288 12.288c4.096 4.096 10.24 4.096 14.336 0l17.92-17.92c4.096-4.096 4.096-10.24 0-14.336l-12.288-12.288c10.24-14.848 17.408-31.744 20.48-49.664h17.408c5.632 0 10.24-4.608 10.24-10.24v-25.6c0-5.632-4.608-10.24-10.24-10.24z m-143.36 115.2c-50.688 0-92.16-41.472-92.16-92.16s41.472-92.16 92.16-92.16 92.16 41.472 92.16 92.16c0 51.2-40.96 92.16-92.16 92.16z" fill="#2c2c2c" p-id="5615"></path></svg>